Release Info:

General

Format                                   : AVI
Format/Info                              : Audio Video Interleave
File size                                : 690 MiB
Duration                                 : 2h 20mn
Overall bit rate                         : 686 Kbps


Video
ID                                       : 0
Format                                   : MPEG-4 Visual
Format profile                           : Advanced Simple@L5
Format settings, BVOP                    : 1
Format settings, QPel                    : No
Format settings, GMC                     : No warppoints
Format settings, Matrix                  : Custom
Codec ID                                 : XVID
Codec ID/Hint                            : XviD
Duration                                 : 2h 20mn
Bit rate                                 : 597 Kbps
Width                                    : 608 pixels
Height                                   : 256 pixels
Display aspect ratio                     : 2.40:1
Frame rate                               : 23.976 fps
Color space                              : YUV
Chroma subsampling                       : 4:2:0
Bit depth                                : 8 bits
Scan type                                : Progressive
Compression mode                         : Lossy
Bits/(Pixel*Frame)                       : 0.160
Stream size                              : 600 MiB (87%)

Audio
ID                                       : 1
Format                                   : MPEG Audio
Format version                           : Version 1
Format profile                           : Layer 3
Mode                                     : Joint stereo
Mode extension                           : MS Stereo
Codec ID                                 : 55
Codec ID/Hint                            : MP3
Duration                                 : 2h 20mn
Bit rate mode                            : Constant
Bit rate                                 : 80.0 Kbps
Channel(s)                               : 2 channels
Sampling rate                            : 32.0 KHz
Compression mode                         : Lossy
Stream size                              : 80.4 MiB (12%)
Alignment                                : Aligned on interleaves
Interleave, duration                     : 42 ms (1.00 video frame)
Interleave, preload duration             : 504 ms


Source:

credit to original movie ripper DDR (Thanks)

IMDB Info:

Director: Karan Johar
Writers: Karan Johar, Renzil D'Silva (screenplay)
Stars: Sidharth Malhotra, Alia Bhatt and Varun Dhawan

Genres: Comedy | Romance
 
http://www.imdb.com/title/tt2172071/

Screen Shot:
 
http://www.shotpix.com/images/79836669521359380623.png 
http://www.shotpix.com/images/30388976247456707898.png 
http://www.shotpix.com/images/16184854647057453990.png 
http://www.shotpix.com/images/45653311235182917462.png 
http://www.shotpix.com/images/17445478285787685483.png 
http://www.shotpix.com/images/60931872681484936630.png 
http://www.shotpix.com/images/39019195661586153887.png 
http://www.shotpix.com/images/25160543517961862552.png